<svg id="Layer_1" data-name="Layer 1" xmlns="http://www.w3.org/2000/svg" viewBox="0 0 97.34 128.43"><defs><style>.cls-1{fill:#0b4e9e;}</style></defs><title>logo_nocircle_blue</title><path class="cls-1" d="M72.79,24H24.55a12,12,0,1,1,0-24H72.79A12,12,0,1,1,72.79,24ZM24.55,6.6a5.38,5.38,0,0,0,0,10.76H72.79a5.38,5.38,0,1,0,0-10.76H24.55Z"/><path class="cls-1" d="M48.67,38.24A41.53,41.53,0,1,1,7.14,79.77,41.58,41.58,0,0,1,48.67,38.24m0-7.14A48.67,48.67,0,1,0,97.34,79.77,48.67,48.67,0,0,0,48.67,31.1h0Z"/></svg>