<?xml version="1.0" encoding="UTF-8" standalone="no"?>
<!-- Created with Inkscape (http://www.inkscape.org/) -->

<svg
   xmlns:dc="http://purl.org/dc/elements/1.1/"
   xmlns:cc="http://creativecommons.org/ns#"
   xmlns:rdf="http://www.w3.org/1999/02/22-rdf-syntax-ns#"
   xmlns:svg="http://www.w3.org/2000/svg"
   xmlns="http://www.w3.org/2000/svg"
   xmlns:sodipodi="http://sodipodi.sourceforge.net/DTD/sodipodi-0.dtd"
   xmlns:inkscape="http://www.inkscape.org/namespaces/inkscape"
   width="107.58131mm"
   height="41.139675mm"
   viewBox="0 0 381.19361 145.7705"
   id="svg2"
   version="1.1"
   inkscape:version="0.91 r13725"
   sodipodi:docname="logo.svg">
  <defs
     id="defs4">
  </defs>
  <sodipodi:namedview
     id="base"
     pagecolor="#ffffff"
     bordercolor="#666666"
     borderopacity="1.0"
     inkscape:pageopacity="0.0"
     inkscape:pageshadow="2"
     inkscape:zoom="1.979899"
     inkscape:cx="-37.433108"
     inkscape:cy="211.87413"
     inkscape:document-units="px"
     inkscape:current-layer="layer1"
     showgrid="false"
     inkscape:window-width="2560"
     inkscape:window-height="1377"
     inkscape:window-x="1699"
     inkscape:window-y="-8"
     inkscape:window-maximized="1"
     fit-margin-top="0"
     fit-margin-left="0"
     fit-margin-right="0"
     fit-margin-bottom="0" />
  <metadata
     id="metadata7">
    <rdf:RDF>
      <cc:Work
         rdf:about="">
        <dc:format>image/svg+xml</dc:format>
        <dc:type
           rdf:resource="http://purl.org/dc/dcmitype/StillImage" />
        <dc:title></dc:title>
      </cc:Work>
    </rdf:RDF>
  </metadata>
  <g
     inkscape:label="Layer 1"
     inkscape:groupmode="layer"
     id="layer1"
     transform="translate(-144.68967,-667.92385)">
    <path
       style="fill:#0b4e9e"
       inkscape:connector-curvature="0"
       class="cls-3"
       d="M 210.00969,706.84435"
       id="path4878" />
    <path
       style="fill:#ffd200;stroke:none"
       d="m 242.02966,765.02435 a 48.669998,48.669998 0 0 1 -48.67,48.67 48.669998,48.669998 0 0 1 -48.66999,-48.67 48.669998,48.669998 0 0 1 48.66999,-48.67 48.669998,48.669998 0 0 1 48.67,48.67 z"
       id="yellow-circle" />
    <path
       style="fill:#0b4e9e;stroke:none"
       inkscape:connector-curvature="0"
       class="cls-1"
       d="m 234.23172,691.92385 -48.24,0 a 12,12 0 1 1 0,-24 l 48.24,0 a 12,12 0 0 1 0,24 z m -48.24,-17.4 a 5.38,5.38 0 1 0 0,10.76 l 48.24,0 a 5.38,5.38 0 0 0 0,-10.76 l -48.24,0 z"
       id="path4850" />
    <path
       style="fill:#0b4e9e;stroke:none"
       inkscape:connector-curvature="0"
       class="cls-1"
       d="m 210.11172,706.16385 a 41.53,41.53 0 1 1 -41.53,41.53 41.58,41.58 0 0 1 41.53,-41.53 m 0,-7.14 a 48.67,48.67 0 1 0 48.67,48.67 48.67,48.67 0 0 0 -48.67,-48.67 l 0,0 z"
       id="path4852" />
  </g>
</svg>