<svg id="Layer_1" data-name="Layer 1" xmlns="http://www.w3.org/2000/svg" viewBox="0 0 2186.46 1194.05"><defs><style>.cls-1{fill:#2d2e2d;}.cls-2{fill:#fff;}.cls-3{fill:#0b4e9e;}.cls-4{fill:#ffd200;}.cls-5{fill:#ee253d;}.cls-6{fill:#f287b6;}.cls-7{fill:#0b4ca1;}</style></defs><title>logo_nocircle_blue</title><circle class="cls-1" cx="59.41" cy="130.01" r="59.41"/><circle class="cls-2" cx="109.61" cy="130.01" r="59.41"/><path class="cls-3" d="M601.91,116.39H553.67a12,12,0,1,1,0-24h48.24A12,12,0,0,1,601.91,116.39ZM553.67,99a5.38,5.38,0,1,0,0,10.76h48.24a5.38,5.38,0,1,0,0-10.76H553.67Z" transform="translate(-18.54)"/><circle class="cls-4" cx="542.6" cy="188.85" r="48.67"/><path class="cls-3" d="M577.79,130.67a41.53,41.53,0,1,1-41.53,41.53,41.58,41.58,0,0,1,41.53-41.53m0-7.14a48.67,48.67,0,1,0,48.67,48.67,48.67,48.67,0,0,0-48.67-48.67h0Z" transform="translate(-18.54)"/><path class="cls-3" d="M182.07,300.11H133.82a12,12,0,0,1,0-24h48.24A12,12,0,0,1,182.07,300.11Zm-48.24-17.36a5.38,5.38,0,0,0,0,10.76h48.24a5.38,5.38,0,0,0,0-10.76H133.82Z" transform="translate(-18.54)"/><circle class="cls-4" cx="122.75" cy="372.56" r="48.67"/><path class="cls-3" d="M157.95,314.38a41.53,41.53,0,1,1-41.53,41.53,41.58,41.58,0,0,1,41.53-41.53m0-7.14a48.67,48.67,0,1,0,48.67,48.67,48.67,48.67,0,0,0-48.67-48.67h0Z" transform="translate(-18.54)"/><path class="cls-3" d="M543.33,1089.57H495.08a12,12,0,1,1,0-24h48.24A12,12,0,1,1,543.33,1089.57Zm-48.24-17.36a5.38,5.38,0,1,0,0,10.76h48.24a5.38,5.38,0,1,0,0-10.76H495.08Z" transform="translate(-18.54)"/><path class="cls-3" d="M519.2,1103.85a41.53,41.53,0,1,1-41.53,41.53,41.58,41.58,0,0,1,41.53-41.53m0-7.14a48.67,48.67,0,1,0,48.67,48.67,48.67,48.67,0,0,0-48.67-48.67h0Z" transform="translate(-18.54)"/><path class="cls-1" d="M236.56,353.93a1.59,1.59,0,0,1,.24.8,1.71,1.71,0,0,1-.8,1.51,9.91,9.91,0,0,1-5.35,1.42c-4.83,0-6.62-3.12-6.62-8.56V331.74a1.78,1.78,0,0,1,1.75-1.75h1.94a1.78,1.78,0,0,1,1.75,1.75v4.16h5.11a1.78,1.78,0,0,1,1.75,1.75v1.61a1.78,1.78,0,0,1-1.75,1.75h-5.11v7.76c0,2.32.76,3.83,2.55,3.83a4.85,4.85,0,0,0,1.51-.24,3.48,3.48,0,0,1,1.09-.24,1.61,1.61,0,0,1,1.47.95Z" transform="translate(-18.54)"/><path class="cls-1" d="M240.58,350.95c0-4.68,3.45-6.91,7.76-6.91a8.84,8.84,0,0,1,4.83,1.37v-0.66c0-3.12-1-4.83-4-4.83a10.68,10.68,0,0,0-3.64.57,2.67,2.67,0,0,1-.85.14,1.7,1.7,0,0,1-1.61-1l-0.28-.57a2,2,0,0,1-.19-0.76,1.79,1.79,0,0,1,1-1.51,14.85,14.85,0,0,1,6.15-1.42c6.29,0,8.52,3.22,8.52,8.85v11.21a1.78,1.78,0,0,1-1.75,1.75h-1.23a1.78,1.78,0,0,1-1.75-1.75v-0.71a7.56,7.56,0,0,1-6.29,2.74C243.37,357.48,240.58,355.06,240.58,350.95Zm12.58-2.18a6,6,0,0,0-3.74-1c-1.8,0-3.41.85-3.41,2.65,0,1.61,1.32,2.51,3,2.51a4.65,4.65,0,0,0,4.12-1.94v-2.18Z" transform="translate(-18.54)"/><path class="cls-1" d="M274.64,340.64a6.37,6.37,0,0,0-4.64,2v12.77a1.78,1.78,0,0,1-1.75,1.75h-1.94a1.78,1.78,0,0,1-1.75-1.75V337.66a1.78,1.78,0,0,1,1.75-1.75h1.94a1.83,1.83,0,0,1,1.75,1.94,9.34,9.34,0,0,1,6.1-2.32c5.2,0,8.75,2.51,8.75,9.18v10.74a1.78,1.78,0,0,1-1.75,1.75h-1.94a1.78,1.78,0,0,1-1.75-1.75v-9.79C279.42,342.24,277.67,340.64,274.64,340.64Z" transform="translate(-18.54)"/><path class="cls-1" d="M309.6,324.08a1.78,1.78,0,0,1,1.75,1.75v29.61a1.78,1.78,0,0,1-1.75,1.75h-1.94a1.78,1.78,0,0,1-1.75-1.75V355a8,8,0,0,1-6.1,2.6c-6.1,0-10-4.3-10-10.79,0-6.72,4.83-11.4,11.68-11.4a8.26,8.26,0,0,1,4.45,1v-10.6a1.78,1.78,0,0,1,1.75-1.75h1.94Zm-3.69,17.69a7.81,7.81,0,0,0-4.21-1.28,5.86,5.86,0,0,0-6.1,6.1c0,3.78,2.46,5.91,5.35,5.91a7.12,7.12,0,0,0,5-2.18v-8.56Z" transform="translate(-18.54)"/><path class="cls-1" d="M333,352.27a2.6,2.6,0,0,1,1.09-.33,1.71,1.71,0,0,1,1.37.8l0.43,0.62a1.71,1.71,0,0,1,.28.95,1.67,1.67,0,0,1-.76,1.42,13.41,13.41,0,0,1-7.14,2c-6.86,0-11.45-4.45-11.45-11.16,0-6.2,4.26-11.16,11.26-11.16a9.72,9.72,0,0,1,10.08,9.89,9.88,9.88,0,0,1,0,1.23,2.06,2.06,0,0,1-1.85,1.7H322.42c0.47,3.22,3,5,6.39,5A9,9,0,0,0,333,352.27Zm-0.28-7.71v-0.09c0-2.55-1.8-4.54-4.87-4.54a5.26,5.26,0,0,0-5.58,4.64h10.45Z" transform="translate(-18.54)"/><path class="cls-1" d="M349,338.27a9,9,0,0,1,6.67-2.74c3.26,0,5.44,1.47,6.2,3.41a8.67,8.67,0,0,1,7.19-3.41c3.88,0,6.81,1.94,6.81,7.76v12.16a1.78,1.78,0,0,1-1.75,1.75h-1.94a1.78,1.78,0,0,1-1.75-1.75V344.7c0-2.65-1.09-4.07-3.64-4.07a4.79,4.79,0,0,0-4.4,2.46c0,0.33,0,1.09,0,1.56v10.79a1.78,1.78,0,0,1-1.75,1.75h-1.94a1.78,1.78,0,0,1-1.75-1.75V344.33c0-2.22-1.23-3.69-3.55-3.69a5.16,5.16,0,0,0-4.45,2.27v12.54a1.78,1.78,0,0,1-1.75,1.75h-1.94a1.78,1.78,0,0,1-1.75-1.75V337.66a1.78,1.78,0,0,1,1.75-1.75h1.94a1.78,1.78,0,0,1,1.75,1.75v0.62Z" transform="translate(-18.54)"/><path class="cls-1" d="M224.31,392.48a1.4,1.4,0,0,1,1.14-.62,2.5,2.5,0,0,1,1.42.52,9.29,9.29,0,0,0,5.25,1.56c1.56,0,2.79-.66,2.79-2,0-3.45-11.5-1.56-11.5-9.32,0-4.16,3.41-6.48,7.81-6.48a12.78,12.78,0,0,1,7.1,2,1.75,1.75,0,0,1,.71,1.42,1.71,1.71,0,0,1-.28.95l-0.52.76a1.58,1.58,0,0,1-1.32.76,3,3,0,0,1-1.18-.33,8.79,8.79,0,0,0-4.21-1c-1.66,0-2.65.9-2.65,1.85,0,3.55,11.5,1.61,11.5,9.13,0,4.21-3.41,6.81-8.61,6.81a11.29,11.29,0,0,1-7.95-2.93,1.52,1.52,0,0,1-.52-1.18,1.57,1.57,0,0,1,.33-1Z" transform="translate(-18.54)"/><path class="cls-1" d="M257.94,394.7a1.59,1.59,0,0,1,.24.8,1.71,1.71,0,0,1-.8,1.51,9.91,9.91,0,0,1-5.35,1.42c-4.83,0-6.62-3.12-6.62-8.56V372.52a1.78,1.78,0,0,1,1.75-1.75h1.94a1.78,1.78,0,0,1,1.75,1.75v4.16H256a1.78,1.78,0,0,1,1.75,1.75V380a1.78,1.78,0,0,1-1.75,1.75h-5.11v7.76c0,2.32.76,3.83,2.55,3.83a4.85,4.85,0,0,0,1.51-.24,3.48,3.48,0,0,1,1.09-.24,1.61,1.61,0,0,1,1.47.95Z" transform="translate(-18.54)"/><path class="cls-1" d="M272.37,393.42a6.17,6.17,0,0,0,4.78-2.6V378.43a1.78,1.78,0,0,1,1.75-1.75h1.94a1.78,1.78,0,0,1,1.75,1.75v17.79a1.78,1.78,0,0,1-1.75,1.75H278.9a1.78,1.78,0,0,1-1.75-1.75v-0.85a8.58,8.58,0,0,1-6.81,3.12c-4.16,0-7.47-2.7-7.47-8.8V378.43a1.78,1.78,0,0,1,1.75-1.75h1.94a1.78,1.78,0,0,1,1.75,1.75v10.12C268.3,391.39,269.39,393.42,272.37,393.42Z" transform="translate(-18.54)"/><path class="cls-1" d="M307.85,364.85a1.78,1.78,0,0,1,1.75,1.75v29.61a1.78,1.78,0,0,1-1.75,1.75h-1.94a1.78,1.78,0,0,1-1.75-1.75v-0.47a8,8,0,0,1-6.1,2.6c-6.1,0-10-4.3-10-10.79,0-6.72,4.83-11.4,11.68-11.4a8.26,8.26,0,0,1,4.45,1V366.6a1.78,1.78,0,0,1,1.75-1.75h1.94Zm-3.69,17.69a7.81,7.81,0,0,0-4.21-1.28,5.86,5.86,0,0,0-6.1,6.1c0,3.78,2.46,5.91,5.35,5.91a7.12,7.12,0,0,0,5-2.18v-8.56Z" transform="translate(-18.54)"/><path class="cls-1" d="M323.13,369a3.19,3.19,0,0,1-3.12,3.41A3.25,3.25,0,0,1,316.6,369a3.2,3.2,0,0,1,3.41-3.17A3.13,3.13,0,0,1,323.13,369Zm-2.27,7.66a1.78,1.78,0,0,1,1.75,1.75v17.79a1.78,1.78,0,0,1-1.75,1.75h-1.94a1.78,1.78,0,0,1-1.75-1.75V378.43a1.78,1.78,0,0,1,1.75-1.75h1.94Z" transform="translate(-18.54)"/><path class="cls-1" d="M328.86,387.32c0-6.39,4.54-11.16,11.59-11.16S352,380.94,352,387.32s-4.54,11.16-11.59,11.16S328.86,393.71,328.86,387.32Zm5.82,0a5.76,5.76,0,0,0,5.77,6.1c3.36,0,5.82-2.41,5.82-6.1A5.8,5.8,0,1,0,334.67,387.32Z" transform="translate(-18.54)"/><path class="cls-3" d="M518.23,433.14H470a12,12,0,1,1,0-24h48.24A12,12,0,0,1,518.23,433.14ZM470,415.78a5.38,5.38,0,0,0,0,10.76h48.24a5.38,5.38,0,1,0,0-10.76H470Z" transform="translate(-18.54)"/><circle class="cls-4" cx="458.91" cy="505.6" r="48.67"/><path class="cls-3" d="M494.11,447.41a41.53,41.53,0,1,1-41.53,41.53,41.58,41.58,0,0,1,41.53-41.53m0-7.14a48.67,48.67,0,1,0,48.67,48.67,48.67,48.67,0,0,0-48.67-48.67h0Z" transform="translate(-18.54)"/><path class="cls-1" d="M422.39,604.44a1.59,1.59,0,0,1,.24.8,1.71,1.71,0,0,1-.8,1.51,9.91,9.91,0,0,1-5.35,1.42c-4.83,0-6.62-3.12-6.62-8.56V582.26a1.78,1.78,0,0,1,1.75-1.75h1.94a1.78,1.78,0,0,1,1.75,1.75v4.16h5.11a1.78,1.78,0,0,1,1.75,1.75v1.61a1.78,1.78,0,0,1-1.75,1.75h-5.11v7.76c0,2.32.76,3.83,2.55,3.83a4.85,4.85,0,0,0,1.51-.24,3.48,3.48,0,0,1,1.09-.24,1.61,1.61,0,0,1,1.47.95Z" transform="translate(-18.54)"/><path class="cls-1" d="M426.41,601.46c0-4.68,3.45-6.91,7.76-6.91a8.84,8.84,0,0,1,4.83,1.37v-0.66c0-3.12-1-4.83-4-4.83a10.68,10.68,0,0,0-3.64.57,2.67,2.67,0,0,1-.85.14,1.7,1.7,0,0,1-1.61-1l-0.28-.57a2,2,0,0,1-.19-0.76,1.79,1.79,0,0,1,1-1.51,14.85,14.85,0,0,1,6.15-1.42c6.29,0,8.52,3.22,8.52,8.85V606a1.78,1.78,0,0,1-1.75,1.75h-1.23a1.78,1.78,0,0,1-1.75-1.75v-0.71a7.56,7.56,0,0,1-6.29,2.74C429.2,608,426.41,605.58,426.41,601.46ZM439,599.29a6,6,0,0,0-3.74-1c-1.8,0-3.41.85-3.41,2.65,0,1.61,1.32,2.51,3,2.51a4.65,4.65,0,0,0,4.12-1.94v-2.18Z" transform="translate(-18.54)"/><path class="cls-1" d="M460.47,591.15a6.37,6.37,0,0,0-4.64,2V606a1.78,1.78,0,0,1-1.75,1.75h-1.94a1.78,1.78,0,0,1-1.75-1.75V588.17a1.78,1.78,0,0,1,1.75-1.75h1.94a1.83,1.83,0,0,1,1.75,1.94,9.34,9.34,0,0,1,6.1-2.32c5.2,0,8.75,2.51,8.75,9.18V606a1.78,1.78,0,0,1-1.75,1.75H467a1.78,1.78,0,0,1-1.75-1.75v-9.79C465.25,592.76,463.5,591.15,460.47,591.15Z" transform="translate(-18.54)"/><path class="cls-1" d="M495.43,574.59a1.78,1.78,0,0,1,1.75,1.75V606a1.78,1.78,0,0,1-1.75,1.75h-1.94a1.78,1.78,0,0,1-1.75-1.75v-0.47a8,8,0,0,1-6.1,2.6c-6.1,0-10-4.3-10-10.79,0-6.72,4.83-11.4,11.68-11.4a8.26,8.26,0,0,1,4.45,1v-10.6a1.78,1.78,0,0,1,1.75-1.75h1.94Zm-3.69,17.69a7.81,7.81,0,0,0-4.21-1.28,5.86,5.86,0,0,0-6.1,6.1c0,3.78,2.46,5.91,5.35,5.91a7.12,7.12,0,0,0,5-2.18v-8.56Z" transform="translate(-18.54)"/><path class="cls-1" d="M518.8,602.79a2.6,2.6,0,0,1,1.09-.33,1.71,1.71,0,0,1,1.37.8l0.43,0.62a1.71,1.71,0,0,1,.28.95,1.67,1.67,0,0,1-.76,1.42,13.41,13.41,0,0,1-7.14,2c-6.86,0-11.45-4.45-11.45-11.16,0-6.2,4.26-11.16,11.26-11.16A9.72,9.72,0,0,1,524,595.79a9.88,9.88,0,0,1,0,1.23,2.06,2.06,0,0,1-1.85,1.7H508.25c0.47,3.22,3,5,6.39,5A9,9,0,0,0,518.8,602.79Zm-0.28-7.71V595c0-2.55-1.8-4.54-4.87-4.54a5.26,5.26,0,0,0-5.58,4.64h10.45Z" transform="translate(-18.54)"/><path class="cls-1" d="M534.84,588.78a9,9,0,0,1,6.67-2.74c3.26,0,5.44,1.47,6.2,3.41A8.67,8.67,0,0,1,554.9,586c3.88,0,6.81,1.94,6.81,7.76V606a1.78,1.78,0,0,1-1.75,1.75H558a1.78,1.78,0,0,1-1.75-1.75V595.22c0-2.65-1.09-4.07-3.64-4.07a4.79,4.79,0,0,0-4.4,2.46c0,0.33,0,1.09,0,1.56V606a1.78,1.78,0,0,1-1.75,1.75h-1.94a1.78,1.78,0,0,1-1.75-1.75V594.84c0-2.22-1.23-3.69-3.55-3.69a5.16,5.16,0,0,0-4.45,2.27V606a1.78,1.78,0,0,1-1.75,1.75h-1.94A1.78,1.78,0,0,1,529.4,606V588.17a1.78,1.78,0,0,1,1.75-1.75h1.94a1.78,1.78,0,0,1,1.75,1.75v0.62Z" transform="translate(-18.54)"/><path class="cls-1" d="M422.44,643a1.4,1.4,0,0,1,1.14-.62,2.5,2.5,0,0,1,1.42.52,9.29,9.29,0,0,0,5.25,1.56c1.56,0,2.79-.66,2.79-2,0-3.45-11.5-1.56-11.5-9.32,0-4.16,3.41-6.48,7.81-6.48a12.78,12.78,0,0,1,7.1,2,1.75,1.75,0,0,1,.71,1.42,1.71,1.71,0,0,1-.28.95l-0.52.76a1.58,1.58,0,0,1-1.32.76,3,3,0,0,1-1.18-.33,8.79,8.79,0,0,0-4.21-1c-1.66,0-2.65.9-2.65,1.85,0,3.55,11.5,1.61,11.5,9.13,0,4.21-3.41,6.81-8.61,6.81a11.29,11.29,0,0,1-7.95-2.93,1.52,1.52,0,0,1-.52-1.18,1.57,1.57,0,0,1,.33-1Z" transform="translate(-18.54)"/><path class="cls-1" d="M456.07,645.22a1.59,1.59,0,0,1,.24.8,1.71,1.71,0,0,1-.8,1.51,9.91,9.91,0,0,1-5.35,1.42c-4.83,0-6.62-3.12-6.62-8.56V623a1.78,1.78,0,0,1,1.75-1.75h1.94A1.78,1.78,0,0,1,449,623v4.16h5.11a1.78,1.78,0,0,1,1.75,1.75v1.61a1.78,1.78,0,0,1-1.75,1.75H449v7.76c0,2.32.76,3.83,2.55,3.83a4.85,4.85,0,0,0,1.51-.24,3.48,3.48,0,0,1,1.09-.24,1.61,1.61,0,0,1,1.47.95Z" transform="translate(-18.54)"/><path class="cls-1" d="M470.5,643.94a6.17,6.17,0,0,0,4.78-2.6V628.94a1.78,1.78,0,0,1,1.75-1.75H479a1.78,1.78,0,0,1,1.75,1.75v17.79a1.78,1.78,0,0,1-1.75,1.75H477a1.78,1.78,0,0,1-1.75-1.75v-0.85a8.58,8.58,0,0,1-6.81,3.12c-4.16,0-7.47-2.7-7.47-8.8V628.94a1.78,1.78,0,0,1,1.75-1.75h1.94a1.78,1.78,0,0,1,1.75,1.75v10.12C466.43,641.9,467.52,643.94,470.5,643.94Z" transform="translate(-18.54)"/><path class="cls-1" d="M506,615.36a1.78,1.78,0,0,1,1.75,1.75v29.61a1.78,1.78,0,0,1-1.75,1.75H504a1.78,1.78,0,0,1-1.75-1.75v-0.47a8,8,0,0,1-6.1,2.6c-6.1,0-10-4.3-10-10.79,0-6.72,4.83-11.4,11.68-11.4a8.26,8.26,0,0,1,4.45,1v-10.6a1.78,1.78,0,0,1,1.75-1.75H506Zm-3.69,17.69a7.81,7.81,0,0,0-4.21-1.28,5.86,5.86,0,0,0-6.1,6.1c0,3.78,2.46,5.91,5.35,5.91a7.12,7.12,0,0,0,5-2.18v-8.56Z" transform="translate(-18.54)"/><path class="cls-1" d="M521.26,619.53a3.19,3.19,0,0,1-3.12,3.41,3.25,3.25,0,0,1-3.41-3.41,3.2,3.2,0,0,1,3.41-3.17A3.13,3.13,0,0,1,521.26,619.53ZM519,627.19a1.78,1.78,0,0,1,1.75,1.75v17.79a1.78,1.78,0,0,1-1.75,1.75H517a1.78,1.78,0,0,1-1.75-1.75V628.94a1.78,1.78,0,0,1,1.75-1.75H519Z" transform="translate(-18.54)"/><path class="cls-1" d="M527,637.84c0-6.39,4.54-11.16,11.59-11.16s11.59,4.78,11.59,11.16S545.62,649,538.57,649,527,644.22,527,637.84Zm5.82,0a5.76,5.76,0,0,0,5.77,6.1c3.36,0,5.82-2.41,5.82-6.1A5.8,5.8,0,1,0,532.8,637.84Z" transform="translate(-18.54)"/><circle class="cls-5" cx="159.81" cy="130.01" r="59.41"/><circle class="cls-6" cx="210.02" cy="130.01" r="59.41"/><circle class="cls-4" cx="260.22" cy="130.14" r="59.41"/><circle class="cls-7" cx="310.42" cy="130.01" r="59.41"/><rect class="cls-7" x="1466.46" width="360" height="360"/><rect class="cls-4" x="1826.46" y="360" width="360" height="360"/><rect class="cls-1" x="1466.46" y="360" width="360" height="360"/><rect class="cls-7" x="721.46" width="360" height="360"/><rect class="cls-4" x="1081.46" y="360" width="360" height="360"/><rect class="cls-1" x="721.46" y="360" width="360" height="360"/><path class="cls-2" d="M946.91,116.39H898.67a12,12,0,1,1,0-24h48.24A12,12,0,0,1,946.91,116.39ZM898.67,99a5.38,5.38,0,1,0,0,10.76h48.24a5.38,5.38,0,1,0,0-10.76H898.67Z" transform="translate(-18.54)"/><path class="cls-2" d="M881.26,172.2a41.51,41.51,0,0,0,72.21,28,48.66,48.66,0,0,0-58.64-58.64A41.43,41.43,0,0,0,881.26,172.2Z" transform="translate(-18.54)"/><path class="cls-2" d="M874.12,172.2a48.44,48.44,0,0,1,6.95-25.07,48.67,48.67,0,1,0,66.79,66.79A48.67,48.67,0,0,1,874.12,172.2Z" transform="translate(-18.54)"/><path class="cls-2" d="M971.46,172.2a48.67,48.67,0,0,0-90.39-25.07,48.37,48.37,0,0,1,13.76-5.61,41.51,41.51,0,0,1,58.64,58.64,48.37,48.37,0,0,1-5.61,13.76A48.64,48.64,0,0,0,971.46,172.2Z" transform="translate(-18.54)"/><path class="cls-2" d="M946.91,489.39H898.67a12,12,0,1,1,0-24h48.24A12,12,0,0,1,946.91,489.39ZM898.67,472a5.38,5.38,0,1,0,0,10.76h48.24a5.38,5.38,0,0,0,0-10.76H898.67Z" transform="translate(-18.54)"/><path class="cls-2" d="M881.26,545.2a41.51,41.51,0,0,0,72.21,28,48.66,48.66,0,0,0-58.64-58.64A41.43,41.43,0,0,0,881.26,545.2Z" transform="translate(-18.54)"/><path class="cls-2" d="M874.12,545.2a48.44,48.44,0,0,1,6.95-25.07,48.67,48.67,0,1,0,66.79,66.79A48.67,48.67,0,0,1,874.12,545.2Z" transform="translate(-18.54)"/><path class="cls-2" d="M971.46,545.2a48.67,48.67,0,0,0-90.39-25.07,48.37,48.37,0,0,1,13.76-5.61,41.51,41.51,0,0,1,58.64,58.64,48.37,48.37,0,0,1-5.61,13.76A48.64,48.64,0,0,0,971.46,545.2Z" transform="translate(-18.54)"/><path class="cls-1" d="M1302.91,116.39h-48.24a12,12,0,1,1,0-24h48.24A12,12,0,1,1,1302.91,116.39ZM1254.67,99a5.38,5.38,0,0,0,0,10.76h48.24a5.38,5.38,0,0,0,0-10.76h-48.24Z" transform="translate(-18.54)"/><path class="cls-1" d="M1237.26,172.2a41.51,41.51,0,0,0,72.21,28,48.66,48.66,0,0,0-58.64-58.64A41.43,41.43,0,0,0,1237.26,172.2Z" transform="translate(-18.54)"/><path class="cls-1" d="M1230.12,172.2a48.44,48.44,0,0,1,6.95-25.07,48.67,48.67,0,1,0,66.79,66.79A48.67,48.67,0,0,1,1230.12,172.2Z" transform="translate(-18.54)"/><path class="cls-1" d="M1327.46,172.2a48.67,48.67,0,0,0-90.39-25.07,48.37,48.37,0,0,1,13.76-5.61,41.51,41.51,0,0,1,58.64,58.64,48.37,48.37,0,0,1-5.61,13.76A48.64,48.64,0,0,0,1327.46,172.2Z" transform="translate(-18.54)"/><path class="cls-1" d="M1302.91,489.39h-48.24a12,12,0,1,1,0-24h48.24A12,12,0,1,1,1302.91,489.39ZM1254.67,472a5.38,5.38,0,0,0,0,10.76h48.24a5.38,5.38,0,0,0,0-10.76h-48.24Z" transform="translate(-18.54)"/><path class="cls-1" d="M1237.26,545.2a41.51,41.51,0,0,0,72.21,28,48.66,48.66,0,0,0-58.64-58.64A41.43,41.43,0,0,0,1237.26,545.2Z" transform="translate(-18.54)"/><path class="cls-1" d="M1230.12,545.2a48.44,48.44,0,0,1,6.95-25.07,48.67,48.67,0,1,0,66.79,66.79A48.67,48.67,0,0,1,1230.12,545.2Z" transform="translate(-18.54)"/><path class="cls-1" d="M1327.46,545.2a48.67,48.67,0,0,0-90.39-25.07,48.37,48.37,0,0,1,13.76-5.61,41.51,41.51,0,0,1,58.64,58.64,48.37,48.37,0,0,1-5.61,13.76A48.64,48.64,0,0,0,1327.46,545.2Z" transform="translate(-18.54)"/><path class="cls-1" d="M2057.91,116.39h-48.24a12,12,0,1,1,0-24h48.24A12,12,0,1,1,2057.91,116.39ZM2009.67,99a5.38,5.38,0,0,0,0,10.76h48.24a5.38,5.38,0,0,0,0-10.76h-48.24Z" transform="translate(-18.54)"/><path class="cls-1" d="M2033.79,130.67a41.53,41.53,0,1,1-41.53,41.53,41.58,41.58,0,0,1,41.53-41.53m0-7.14a48.67,48.67,0,1,0,48.67,48.67,48.67,48.67,0,0,0-48.67-48.67h0Z" transform="translate(-18.54)"/><path class="cls-1" d="M2017.14,140.18c-1.32,0-2.62.07-3.92,0.17a37.91,37.91,0,1,0,52.41,52.41c0.1-1.29.17-2.6,0.17-3.92A48.67,48.67,0,0,0,2017.14,140.18Z" transform="translate(-18.54)"/><path class="cls-1" d="M2033.79,224.47a52.26,52.26,0,0,1-48.07-72.77,48.66,48.66,0,1,0,68.57,68.58A52,52,0,0,1,2033.79,224.47Z" transform="translate(-18.54)"/><path class="cls-7" d="M2057.91,491.39h-48.24a12,12,0,1,1,0-24h48.24A12,12,0,1,1,2057.91,491.39ZM2009.67,474a5.38,5.38,0,0,0,0,10.76h48.24a5.38,5.38,0,0,0,0-10.76h-48.24Z" transform="translate(-18.54)"/><path class="cls-7" d="M2033.79,505.67a41.53,41.53,0,1,1-41.53,41.53,41.58,41.58,0,0,1,41.53-41.53m0-7.14a48.67,48.67,0,1,0,48.67,48.67,48.67,48.67,0,0,0-48.67-48.67h0Z" transform="translate(-18.54)"/><path class="cls-7" d="M2017.14,515.18c-1.32,0-2.62.07-3.92,0.17a37.91,37.91,0,1,0,52.41,52.41c0.1-1.29.17-2.6,0.17-3.92A48.67,48.67,0,0,0,2017.14,515.18Z" transform="translate(-18.54)"/><path class="cls-7" d="M2033.79,599.47a52.26,52.26,0,0,1-48.07-72.77,48.66,48.66,0,1,0,68.57,68.58A52,52,0,0,1,2033.79,599.47Z" transform="translate(-18.54)"/><path class="cls-2" d="M1697.91,491.39h-48.24a12,12,0,1,1,0-24h48.24A12,12,0,1,1,1697.91,491.39ZM1649.67,474a5.38,5.38,0,0,0,0,10.76h48.24a5.38,5.38,0,0,0,0-10.76h-48.24Z" transform="translate(-18.54)"/><path class="cls-2" d="M1673.79,505.67a41.53,41.53,0,1,1-41.53,41.53,41.58,41.58,0,0,1,41.53-41.53m0-7.14a48.67,48.67,0,1,0,48.67,48.67,48.67,48.67,0,0,0-48.67-48.67h0Z" transform="translate(-18.54)"/><path class="cls-2" d="M1657.14,515.18c-1.32,0-2.62.07-3.92,0.17a37.91,37.91,0,1,0,52.41,52.41c0.1-1.29.17-2.6,0.17-3.92A48.67,48.67,0,0,0,1657.14,515.18Z" transform="translate(-18.54)"/><path class="cls-2" d="M1673.79,599.47a52.26,52.26,0,0,1-48.07-72.77,48.66,48.66,0,1,0,68.57,68.58A52,52,0,0,1,1673.79,599.47Z" transform="translate(-18.54)"/><path class="cls-4" d="M1697.91,131.39h-48.24a12,12,0,1,1,0-24h48.24A12,12,0,1,1,1697.91,131.39ZM1649.67,114a5.38,5.38,0,0,0,0,10.76h48.24a5.38,5.38,0,0,0,0-10.76h-48.24Z" transform="translate(-18.54)"/><path class="cls-4" d="M1673.79,145.67a41.53,41.53,0,1,1-41.53,41.53,41.58,41.58,0,0,1,41.53-41.53m0-7.14a48.67,48.67,0,1,0,48.67,48.67,48.67,48.67,0,0,0-48.67-48.67h0Z" transform="translate(-18.54)"/><path class="cls-4" d="M1657.14,155.18c-1.32,0-2.62.07-3.92,0.17a37.91,37.91,0,1,0,52.41,52.41c0.1-1.29.17-2.6,0.17-3.92A48.67,48.67,0,0,0,1657.14,155.18Z" transform="translate(-18.54)"/><path class="cls-4" d="M1673.79,239.47a52.26,52.26,0,0,1-48.07-72.77,48.66,48.66,0,1,0,68.57,68.58A52,52,0,0,1,1673.79,239.47Z" transform="translate(-18.54)"/></svg>