<svg xmlns="http://www.w3.org/2000/svg" width="406.607" height="155.489" viewBox="0 0 381.194 145.77"><path d="M97.34 97.1a48.67 48.67 0 0 1-48.67 48.67A48.67 48.67 0 0 1 0 97.1a48.67 48.67 0 0 1 48.67-48.67A48.67 48.67 0 0 1 97.34 97.1z" fill="#ffd200"/><path class="cls-1" d="M89.542 24h-48.24a12 12 0 1 1 0-24h48.24a12 12 0 0 1 0 24zM41.302 6.6a5.38 5.38 0 1 0 0 10.76h48.24a5.38 5.38 0 0 0 0-10.76h-48.24zm24.12 31.64a41.53 41.53 0 1 1-41.53 41.53 41.58 41.58 0 0 1 41.53-41.53m0-7.14a48.67 48.67 0 1 0 48.67 48.67 48.67 48.67 0 0 0-48.67-48.67z" fill="#0b4e9e"/></svg>